<mxfile host="Electron" agent="Mozilla/5.0 (Windows NT 10.0; Win64; x64) AppleWebKit/537.36 (KHTML, like Gecko) draw.io/24.7.8 Chrome/128.0.6613.36 Electron/32.0.1 Safari/537.36" version="24.7.8">
  <diagram name="Page-1" id="xxiNoBbLBxkhlH0N1M7q">
    <mxGraphModel dx="1313" dy="776" grid="1" gridSize="10" guides="1" tooltips="1" connect="1" arrows="1" fold="1" page="1" pageScale="1" pageWidth="3300" pageHeight="4681" math="0" shadow="0">
      <root>
        <mxCell id="0" />
        <mxCell id="1" parent="0" />
        <mxCell id="uTup5cEviiAzuRJx-CWJ-3" style="edgeStyle=orthogonalEdgeStyle;rounded=0;orthogonalLoop=1;jettySize=auto;html=1;entryX=0;entryY=0.5;entryDx=0;entryDy=0;fontSize=14;" edge="1" parent="1" source="uTup5cEviiAzuRJx-CWJ-1" target="uTup5cEviiAzuRJx-CWJ-2">
          <mxGeometry relative="1" as="geometry" />
        </mxCell>
        <mxCell id="uTup5cEviiAzuRJx-CWJ-12" style="edgeStyle=orthogonalEdgeStyle;rounded=0;orthogonalLoop=1;jettySize=auto;html=1;fontSize=14;" edge="1" parent="1" source="uTup5cEviiAzuRJx-CWJ-1" target="uTup5cEviiAzuRJx-CWJ-9">
          <mxGeometry relative="1" as="geometry">
            <mxPoint x="1040" y="1270" as="targetPoint" />
            <Array as="points">
              <mxPoint x="1130" y="1190" />
              <mxPoint x="1130" y="1190" />
            </Array>
          </mxGeometry>
        </mxCell>
        <mxCell id="uTup5cEviiAzuRJx-CWJ-1" value="Employee" style="rounded=0;whiteSpace=wrap;html=1;fontSize=14;" vertex="1" parent="1">
          <mxGeometry x="1060" y="1030" width="100" height="60" as="geometry" />
        </mxCell>
        <mxCell id="uTup5cEviiAzuRJx-CWJ-2" value="Address" style="rounded=0;whiteSpace=wrap;html=1;fontSize=14;" vertex="1" parent="1">
          <mxGeometry x="1460" y="1030" width="120" height="60" as="geometry" />
        </mxCell>
        <mxCell id="uTup5cEviiAzuRJx-CWJ-4" value="EmpID&lt;div style=&quot;font-size: 14px;&quot;&gt;EmpName&lt;/div&gt;&lt;div style=&quot;font-size: 14px;&quot;&gt;AddressID&lt;/div&gt;&lt;div style=&quot;font-size: 14px;&quot;&gt;departmentid&lt;/div&gt;" style="text;html=1;align=left;verticalAlign=middle;whiteSpace=wrap;rounded=0;fontSize=14;" vertex="1" parent="1">
          <mxGeometry x="1060" y="1110" width="60" height="30" as="geometry" />
        </mxCell>
        <mxCell id="uTup5cEviiAzuRJx-CWJ-5" value="AddressID&lt;div style=&quot;font-size: 14px;&quot;&gt;Address&lt;/div&gt;&lt;div style=&quot;font-size: 14px;&quot;&gt;State&lt;/div&gt;" style="text;html=1;align=left;verticalAlign=middle;resizable=0;points=[];autosize=1;strokeColor=none;fillColor=none;fontSize=14;" vertex="1" parent="1">
          <mxGeometry x="1460" y="1090" width="90" height="60" as="geometry" />
        </mxCell>
        <mxCell id="uTup5cEviiAzuRJx-CWJ-6" value="1,1&lt;div style=&quot;font-size: 14px;&quot;&gt;&lt;br style=&quot;font-size: 14px;&quot;&gt;&lt;/div&gt;" style="text;html=1;align=center;verticalAlign=middle;resizable=0;points=[];autosize=1;strokeColor=none;fillColor=none;fontSize=14;" vertex="1" parent="1">
          <mxGeometry x="1160" y="1025" width="40" height="50" as="geometry" />
        </mxCell>
        <mxCell id="uTup5cEviiAzuRJx-CWJ-7" value="1,1&lt;div style=&quot;font-size: 14px;&quot;&gt;&lt;br style=&quot;font-size: 14px;&quot;&gt;&lt;/div&gt;" style="text;html=1;align=center;verticalAlign=middle;resizable=0;points=[];autosize=1;strokeColor=none;fillColor=none;fontSize=14;" vertex="1" parent="1">
          <mxGeometry x="1420" y="1028" width="40" height="50" as="geometry" />
        </mxCell>
        <mxCell id="uTup5cEviiAzuRJx-CWJ-13" style="edgeStyle=orthogonalEdgeStyle;rounded=0;orthogonalLoop=1;jettySize=auto;html=1;fontSize=14;" edge="1" parent="1" source="uTup5cEviiAzuRJx-CWJ-8" target="uTup5cEviiAzuRJx-CWJ-1">
          <mxGeometry relative="1" as="geometry" />
        </mxCell>
        <mxCell id="uTup5cEviiAzuRJx-CWJ-8" value="Mission" style="rounded=0;whiteSpace=wrap;html=1;fontSize=14;" vertex="1" parent="1">
          <mxGeometry x="170" y="1030" width="120" height="60" as="geometry" />
        </mxCell>
        <mxCell id="uTup5cEviiAzuRJx-CWJ-9" value="Department" style="rounded=0;whiteSpace=wrap;html=1;fontSize=14;" vertex="1" parent="1">
          <mxGeometry x="1060" y="1370" width="120" height="60" as="geometry" />
        </mxCell>
        <mxCell id="uTup5cEviiAzuRJx-CWJ-11" value="DepartID&lt;div style=&quot;font-size: 14px;&quot;&gt;DepartName&lt;/div&gt;" style="text;html=1;align=left;verticalAlign=middle;resizable=0;points=[];autosize=1;strokeColor=none;fillColor=none;fontSize=14;" vertex="1" parent="1">
          <mxGeometry x="1060" y="1425" width="100" height="50" as="geometry" />
        </mxCell>
        <mxCell id="uTup5cEviiAzuRJx-CWJ-14" value="*" style="text;html=1;align=center;verticalAlign=middle;resizable=0;points=[];autosize=1;strokeColor=none;fillColor=none;fontSize=14;" vertex="1" parent="1">
          <mxGeometry x="285" y="1028" width="30" height="30" as="geometry" />
        </mxCell>
        <mxCell id="uTup5cEviiAzuRJx-CWJ-15" value="*" style="text;html=1;align=center;verticalAlign=middle;resizable=0;points=[];autosize=1;strokeColor=none;fillColor=none;fontSize=14;" vertex="1" parent="1">
          <mxGeometry x="1030" y="1028" width="30" height="30" as="geometry" />
        </mxCell>
        <mxCell id="uTup5cEviiAzuRJx-CWJ-16" value="1,1" style="text;html=1;align=center;verticalAlign=middle;resizable=0;points=[];autosize=1;strokeColor=none;fillColor=none;fontSize=14;" vertex="1" parent="1">
          <mxGeometry x="1130" y="1090" width="40" height="30" as="geometry" />
        </mxCell>
        <mxCell id="uTup5cEviiAzuRJx-CWJ-17" value="0,*" style="text;html=1;align=center;verticalAlign=middle;resizable=0;points=[];autosize=1;strokeColor=none;fillColor=none;fontSize=14;" vertex="1" parent="1">
          <mxGeometry x="1140" y="1340" width="40" height="30" as="geometry" />
        </mxCell>
        <mxCell id="uTup5cEviiAzuRJx-CWJ-18" value="MissionID&lt;div style=&quot;font-size: 14px;&quot;&gt;MissionName&lt;/div&gt;&lt;div style=&quot;font-size: 14px;&quot;&gt;MissionPeriod&lt;/div&gt;&lt;div style=&quot;font-size: 14px;&quot;&gt;&lt;br style=&quot;font-size: 14px;&quot;&gt;&lt;/div&gt;" style="text;html=1;align=left;verticalAlign=middle;resizable=0;points=[];autosize=1;strokeColor=none;fillColor=none;fontSize=14;" vertex="1" parent="1">
          <mxGeometry x="170" y="1085" width="110" height="80" as="geometry" />
        </mxCell>
        <mxCell id="uTup5cEviiAzuRJx-CWJ-19" value="&lt;div style=&quot;background-color: rgb(255, 255, 255); color: rgb(8, 8, 8); font-size: 10px;&quot;&gt;&lt;pre style=&quot;font-family: &amp;quot;JetBrains Mono&amp;quot;, monospace;&quot;&gt;&lt;b&gt;&lt;span style=&quot;color:#9e880d;&quot;&gt;@OneToOne&lt;br&gt;&lt;/span&gt;&lt;span style=&quot;color:#9e880d;&quot;&gt;@JoinColumn&lt;/span&gt;(name = &lt;span style=&quot;color:#067d17;&quot;&gt;&quot;empId&quot;&lt;/span&gt;)&lt;br&gt;&lt;span style=&quot;color:#0033b3;&quot;&gt;private &lt;/span&gt;&lt;span style=&quot;color:#000000;&quot;&gt;Employee &lt;/span&gt;&lt;span style=&quot;color:#871094;&quot;&gt;employee&lt;/span&gt;;&lt;/b&gt;&lt;/pre&gt;&lt;/div&gt;" style="ellipse;whiteSpace=wrap;html=1;align=center;" vertex="1" parent="1">
          <mxGeometry x="1430" y="925" width="200" height="100" as="geometry" />
        </mxCell>
        <mxCell id="uTup5cEviiAzuRJx-CWJ-20" value="&lt;div style=&quot;background-color: rgb(255, 255, 255); color: rgb(8, 8, 8); font-size: 12px;&quot;&gt;&lt;pre style=&quot;font-family: &amp;quot;JetBrains Mono&amp;quot;, monospace; font-size: 12px;&quot;&gt;&lt;div style=&quot;font-size: 10px;&quot;&gt;&lt;pre style=&quot;font-family: &amp;quot;JetBrains Mono&amp;quot;, monospace;&quot;&gt;&lt;b&gt;&lt;span style=&quot;color: rgb(158, 136, 13);&quot;&gt;@OneToOne&lt;br style=&quot;&quot;&gt;&lt;/span&gt;&lt;span style=&quot;color: rgb(158, 136, 13);&quot;&gt;@JoinColumn&lt;/span&gt;(name = &lt;span style=&quot;color: rgb(6, 125, 23);&quot;&gt;&quot;addressId&quot;&lt;/span&gt;)&lt;br style=&quot;&quot;&gt;&lt;span style=&quot;color: rgb(0, 51, 179);&quot;&gt;private &lt;/span&gt;&lt;span style=&quot;color: rgb(0, 0, 0);&quot;&gt;Address &lt;/span&gt;&lt;span style=&quot;color: rgb(135, 16, 148);&quot;&gt;address&lt;/span&gt;;&lt;/b&gt;&lt;/pre&gt;&lt;/div&gt;&lt;/pre&gt;&lt;/div&gt;" style="ellipse;whiteSpace=wrap;html=1;align=center;fontSize=12;" vertex="1" parent="1">
          <mxGeometry x="1130" y="930" width="210" height="110" as="geometry" />
        </mxCell>
        <mxCell id="uTup5cEviiAzuRJx-CWJ-21" value="&lt;div style=&quot;background-color: rgb(255, 255, 255); color: rgb(8, 8, 8); font-size: 12px;&quot;&gt;&lt;pre style=&quot;font-family: &amp;quot;JetBrains Mono&amp;quot;, monospace; font-size: 12px;&quot;&gt;&lt;div style=&quot;font-size: 10px;&quot;&gt;&lt;pre style=&quot;font-family: &amp;quot;JetBrains Mono&amp;quot;, monospace;&quot;&gt;&lt;div style=&quot;&quot;&gt;&lt;pre style=&quot;font-family: &amp;quot;JetBrains Mono&amp;quot;, monospace;&quot;&gt;&lt;b&gt;&lt;span style=&quot;color:#9e880d;&quot;&gt;@ManyToMany&lt;/span&gt;(mappedBy = &lt;span style=&quot;color:#067d17;&quot;&gt;&quot;mission&quot;&lt;/span&gt;)&lt;br&gt;&lt;span style=&quot;color:#0033b3;&quot;&gt;private &lt;/span&gt;&lt;span style=&quot;color:#000000;&quot;&gt;List&lt;/span&gt;&amp;lt;&lt;span style=&quot;color:#000000;&quot;&gt;Employee&lt;/span&gt;&amp;gt; &lt;span style=&quot;color:#871094;&quot;&gt;employee&lt;/span&gt;;&lt;/b&gt;&lt;/pre&gt;&lt;/div&gt;&lt;/pre&gt;&lt;/div&gt;&lt;/pre&gt;&lt;/div&gt;" style="ellipse;whiteSpace=wrap;html=1;align=center;fontSize=12;" vertex="1" parent="1">
          <mxGeometry x="200" y="920" width="210" height="110" as="geometry" />
        </mxCell>
        <mxCell id="uTup5cEviiAzuRJx-CWJ-22" value="&lt;div style=&quot;background-color: rgb(255, 255, 255); color: rgb(8, 8, 8); font-size: 12px;&quot;&gt;&lt;pre style=&quot;font-family: &amp;quot;JetBrains Mono&amp;quot;, monospace; font-size: 12px;&quot;&gt;&lt;div style=&quot;font-size: 10px;&quot;&gt;&lt;pre style=&quot;font-family: &amp;quot;JetBrains Mono&amp;quot;, monospace;&quot;&gt;&lt;div style=&quot;&quot;&gt;&lt;pre style=&quot;font-family: &amp;quot;JetBrains Mono&amp;quot;, monospace;&quot;&gt;&lt;b&gt;&lt;span style=&quot;color:#9e880d;&quot;&gt;@OneToMany&lt;/span&gt;(mappedBy = &lt;span style=&quot;color:#067d17;&quot;&gt;&quot;department&quot;&lt;/span&gt;)&lt;br&gt;&lt;span style=&quot;color:#0033b3;&quot;&gt;private &lt;/span&gt;&lt;span style=&quot;color:#000000;&quot;&gt;List&lt;/span&gt;&amp;lt;&lt;span style=&quot;color:#000000;&quot;&gt;Employee&lt;/span&gt;&amp;gt; &lt;span style=&quot;color:#871094;&quot;&gt;employee&lt;/span&gt;;&lt;/b&gt;&lt;/pre&gt;&lt;/div&gt;&lt;/pre&gt;&lt;/div&gt;&lt;/pre&gt;&lt;/div&gt;" style="ellipse;whiteSpace=wrap;html=1;align=center;fontSize=12;" vertex="1" parent="1">
          <mxGeometry x="1190" y="1360" width="230" height="115" as="geometry" />
        </mxCell>
        <mxCell id="uTup5cEviiAzuRJx-CWJ-23" value="&lt;div style=&quot;background-color: rgb(255, 255, 255); color: rgb(8, 8, 8); font-size: 12px;&quot;&gt;&lt;pre style=&quot;font-family: &amp;quot;JetBrains Mono&amp;quot;, monospace; font-size: 12px;&quot;&gt;&lt;div style=&quot;font-size: 10px;&quot;&gt;&lt;pre style=&quot;font-family: &amp;quot;JetBrains Mono&amp;quot;, monospace;&quot;&gt;&lt;div style=&quot;&quot;&gt;&lt;pre style=&quot;font-family: &amp;quot;JetBrains Mono&amp;quot;, monospace;&quot;&gt;&lt;b&gt;&lt;span style=&quot;color:#9e880d;&quot;&gt;@ManyToOne&lt;br&gt;&lt;/span&gt;&lt;span style=&quot;color:#9e880d;&quot;&gt;@JoinColumn&lt;/span&gt;(name = &lt;span style=&quot;color:#067d17;&quot;&gt;&quot;departmentId&quot;&lt;/span&gt;)&lt;br&gt;&lt;span style=&quot;color:#0033b3;&quot;&gt;private &lt;/span&gt;&lt;span style=&quot;color:#000000;&quot;&gt;Department &lt;/span&gt;&lt;span style=&quot;color:#871094;&quot;&gt;department&lt;/span&gt;;&lt;/b&gt;&lt;/pre&gt;&lt;/div&gt;&lt;/pre&gt;&lt;/div&gt;&lt;/pre&gt;&lt;/div&gt;" style="ellipse;whiteSpace=wrap;html=1;align=center;fontSize=12;" vertex="1" parent="1">
          <mxGeometry x="1130" y="1110" width="210" height="110" as="geometry" />
        </mxCell>
        <mxCell id="uTup5cEviiAzuRJx-CWJ-24" value="&lt;div style=&quot;background-color: rgb(255, 255, 255); color: rgb(8, 8, 8); font-size: 12px;&quot;&gt;&lt;pre style=&quot;font-family: &amp;quot;JetBrains Mono&amp;quot;, monospace; font-size: 12px;&quot;&gt;&lt;div style=&quot;font-size: 10px;&quot;&gt;&lt;pre style=&quot;font-family: &amp;quot;JetBrains Mono&amp;quot;, monospace;&quot;&gt;&lt;div style=&quot;&quot;&gt;&lt;pre style=&quot;font-family: &amp;quot;JetBrains Mono&amp;quot;, monospace;&quot;&gt;&lt;div style=&quot;&quot;&gt;&lt;pre style=&quot;font-family: &amp;quot;JetBrains Mono&amp;quot;, monospace;&quot;&gt;&lt;div style=&quot;&quot;&gt;&lt;pre style=&quot;font-family: &amp;quot;JetBrains Mono&amp;quot;, monospace;&quot;&gt;&lt;b&gt;&lt;span style=&quot;color:#9e880d;&quot;&gt;@ManyToMany&lt;br&gt;&lt;/span&gt;&lt;span style=&quot;color:#9e880d;&quot;&gt;@JoinTable&lt;/span&gt;(name = &lt;span style=&quot;color:#067d17;&quot;&gt;&quot;employee-mission&quot;&lt;/span&gt;,&lt;br&gt;        joinColumns = &lt;span style=&quot;color:#9e880d;&quot;&gt;@JoinColumn&lt;/span&gt;(name = &lt;span style=&quot;color:#067d17;&quot;&gt;&quot;employeeId&quot;&lt;/span&gt;),  &lt;span style=&quot;color:#8c8c8c;font-style:italic;&quot;&gt;//Primarykey of the employee table&lt;br&gt;&lt;/span&gt;&lt;span style=&quot;color:#8c8c8c;font-style:italic;&quot;&gt;        &lt;/span&gt;inverseJoinColumns = &lt;span style=&quot;color:#9e880d;&quot;&gt;@JoinColumn&lt;/span&gt;(name = &lt;span style=&quot;color:#067d17;&quot;&gt;&quot;missionId&quot;&lt;/span&gt;) &lt;span style=&quot;color:#8c8c8c;font-style:italic;&quot;&gt;//Primarykey of the mission table&lt;br&gt;&lt;/span&gt;&lt;span style=&quot;color:#8c8c8c;font-style:italic;&quot;&gt;        &lt;/span&gt;)&lt;br&gt;&lt;span style=&quot;color:#0033b3;&quot;&gt;private &lt;/span&gt;&lt;span style=&quot;color:#000000;&quot;&gt;List&lt;/span&gt;&amp;lt;&lt;span style=&quot;color:#000000;&quot;&gt;Mission&lt;/span&gt;&amp;gt; &lt;span style=&quot;color:#871094;&quot;&gt;mission&lt;/span&gt;;&lt;/b&gt;&lt;/pre&gt;&lt;/div&gt;&lt;/pre&gt;&lt;/div&gt;&lt;/pre&gt;&lt;/div&gt;&lt;/pre&gt;&lt;/div&gt;&lt;/pre&gt;&lt;/div&gt;" style="ellipse;whiteSpace=wrap;html=1;align=center;fontSize=12;" vertex="1" parent="1">
          <mxGeometry x="700" y="930" width="210" height="110" as="geometry" />
        </mxCell>
        <mxCell id="uTup5cEviiAzuRJx-CWJ-25" value="&lt;span style=&quot;font-size: 14px;&quot;&gt;employee-mission&lt;/span&gt;" style="rounded=0;whiteSpace=wrap;html=1;" vertex="1" parent="1">
          <mxGeometry x="500" y="770" width="120" height="60" as="geometry" />
        </mxCell>
        <mxCell id="uTup5cEviiAzuRJx-CWJ-26" value="&lt;font style=&quot;font-size: 14px;&quot;&gt;employeeId&lt;/font&gt;&lt;div style=&quot;font-size: 14px;&quot;&gt;&lt;font style=&quot;font-size: 14px;&quot;&gt;missionId&lt;/font&gt;&lt;/div&gt;" style="text;html=1;align=left;verticalAlign=middle;resizable=0;points=[];autosize=1;strokeColor=none;fillColor=none;" vertex="1" parent="1">
          <mxGeometry x="500" y="825" width="100" height="50" as="geometry" />
        </mxCell>
      </root>
    </mxGraphModel>
  </diagram>
</mxfile>
